HIERARCHY
ROOT Hips
{
	OFFSET -14.64140 90.27770 -84.91600
	CHANNELS 6 Xposition Yposition Zposition Zrotation Xrotation Yrotation
	JOINT Spine
	{
		OFFSET 0.00000 13.20850 -1.60436
		CHANNELS 3 Zrotation Xrotation Yrotation
		JOINT Spine1
		{
			OFFSET 0.00000 8.61716 0.00000
			CHANNELS 3 Zrotation Xrotation Yrotation
			JOINT Spine2
			{
				OFFSET 0.00000 8.61717 0.00000
				CHANNELS 3 Zrotation Xrotation Yrotation
				JOINT Spine3
				{
					OFFSET 0.00000 8.61717 0.00000
					CHANNELS 3 Zrotation Xrotation Yrotation
					JOINT Neck
					{
						OFFSET 0.00000 11.07920 1.10792
						CHANNELS 3 Zrotation Xrotation Yrotation
						JOINT Neck1
						{
							OFFSET 0.00000 7.08032 0.00000
							CHANNELS 3 Zrotation Xrotation Yrotation
							JOINT Head
							{
								OFFSET 0.00000 7.08031 0.00000
								CHANNELS 3 Zrotation Xrotation Yrotation
								End site
								{
									OFFSET 0.00000 0.00000 0.00000
								}
							}
						}
					}
					JOINT RightShoulder
					{
						OFFSET -0.01000 7.91373 5.19711
						CHANNELS 3 Zrotation Xrotation Yrotation
						JOINT RightArm
						{
							OFFSET -18.41580 0.00000 0.00000
							CHANNELS 3 Zrotation Xrotation Yrotation
							JOINT RightForeArm
							{
								OFFSET -29.11090 0.00000 0.00000
								CHANNELS 3 Zrotation Xrotation Yrotation
								JOINT RightHand
								{
									OFFSET -24.65040 0.00000 0.00000
									CHANNELS 3 Zrotation Xrotation Yrotation
									JOINT RightHandThumb1
									{
										OFFSET -5.35114 -0.85590 3.97906
										CHANNELS 3 Zrotation Xrotation Yrotation
										JOINT RightHandThumb2
										{
											OFFSET -4.52789 0.00000 0.00000
											CHANNELS 3 Zrotation Xrotation Yrotation
											JOINT RightHandThumb3
											{
												OFFSET -2.46976 0.00000 0.00000
												CHANNELS 3 Zrotation Xrotation Yrotation
												End site
												{
													OFFSET 0.00000 0.00000 0.00000
												}
											}
										}
									}
									JOINT RightHandIndex1
									{
										OFFSET -14.26970 0.00000 2.88139
										CHANNELS 3 Zrotation Xrotation Yrotation
										JOINT RightHandIndex2
										{
											OFFSET -5.48836 0.00000 0.00000
											CHANNELS 3 Zrotation Xrotation Yrotation
											JOINT RightHandIndex3
											{
												OFFSET -3.01859 0.00000 0.00000
												CHANNELS 3 Zrotation Xrotation Yrotation
												End site
												{
													OFFSET 0.00000 0.00000 0.00000
												}
											}
										}
									}
									JOINT RightHandMiddle1
									{
										OFFSET -14.26970 0.00000 -0.09147
										CHANNELS 3 Zrotation Xrotation Yrotation
										JOINT RightHandMiddle2
										{
											OFFSET -6.17441 0.00000 0.00000
											CHANNELS 3 Zrotation Xrotation Yrotation
											JOINT RightHandMiddle3
											{
												OFFSET -3.56743 0.00000 0.00000
												CHANNELS 3 Zrotation Xrotation Yrotation
												End site
												{
													OFFSET 0.00000 0.00000 0.00000
												}
											}
										}
									}
									JOINT RightHandRing1
									{
										OFFSET -12.69180 0.00000 -3.06433
										CHANNELS 3 Zrotation Xrotation Yrotation
										JOINT RightHandRing2
										{
											OFFSET -5.62556 0.00000 0.00000
											CHANNELS 3 Zrotation Xrotation Yrotation
											JOINT RightHandRing3
											{
												OFFSET -3.56744 0.00000 0.00000
												CHANNELS 3 Zrotation Xrotation Yrotation
												End site
												{
													OFFSET 0.00000 0.00000 0.00000
												}
											}
										}
									}
									JOINT RightHandPinky1
									{
										OFFSET -11.11390 0.00000 -6.03719
										CHANNELS 3 Zrotation Xrotation Yrotation
										JOINT RightHandPinky2
										{
											OFFSET -4.52789 0.00000 0.00000
											CHANNELS 3 Zrotation Xrotation Yrotation
											JOINT RightHandPinky3
											{
												OFFSET -2.46976 0.00000 0.00000
												CHANNELS 3 Zrotation Xrotation Yrotation
												End site
												{
													OFFSET 0.00000 0.00000 0.00000
												}
											}
										}
									}
								}
							}
						}
					}
					JOINT LeftShoulder
					{
						OFFSET 0.01000 7.91373 5.19711
						CHANNELS 3 Zrotation Xrotation Yrotation
						JOINT LeftArm
						{
							OFFSET 18.41580 0.00000 0.00000
							CHANNELS 3 Zrotation Xrotation Yrotation
							JOINT LeftForeArm
							{
								OFFSET 29.11090 0.00000 0.00000
								CHANNELS 3 Zrotation Xrotation Yrotation
								JOINT LeftHand
								{
									OFFSET 24.65040 0.00000 0.00000
									CHANNELS 3 Zrotation Xrotation Yrotation
									JOINT LeftHandThumb1
									{
										OFFSET 5.35114 -0.85590 3.97906
										CHANNELS 3 Zrotation Xrotation Yrotation
										JOINT LeftHandThumb2
										{
											OFFSET 4.52789 0.00000 0.00000
											CHANNELS 3 Zrotation Xrotation Yrotation
											JOINT LeftHandThumb3
											{
												OFFSET 2.46977 0.00000 0.00000
												CHANNELS 3 Zrotation Xrotation Yrotation
												End site
												{
													OFFSET 0.00000 0.00000 0.00000
												}
											}
										}
									}
									JOINT LeftHandIndex1
									{
										OFFSET 14.26970 0.00000 2.88139
										CHANNELS 3 Zrotation Xrotation Yrotation
										JOINT LeftHandIndex2
										{
											OFFSET 5.48836 0.00000 0.00000
											CHANNELS 3 Zrotation Xrotation Yrotation
											JOINT LeftHandIndex3
											{
												OFFSET 3.01859 0.00000 0.00000
												CHANNELS 3 Zrotation Xrotation Yrotation
												End site
												{
													OFFSET 0.00000 0.00000 0.00000
												}
											}
										}
									}
									JOINT LeftHandMiddle1
									{
										OFFSET 14.26970 0.00000 -0.09147
										CHANNELS 3 Zrotation Xrotation Yrotation
										JOINT LeftHandMiddle2
										{
											OFFSET 6.17440 0.00000 0.00000
											CHANNELS 3 Zrotation Xrotation Yrotation
											JOINT LeftHandMiddle3
											{
												OFFSET 3.56744 0.00000 0.00000
												CHANNELS 3 Zrotation Xrotation Yrotation
												End site
												{
													OFFSET 0.00000 0.00000 0.00000
												}
											}
										}
									}
									JOINT LeftHandRing1
									{
										OFFSET 12.69180 0.00000 -3.06433
										CHANNELS 3 Zrotation Xrotation Yrotation
										JOINT LeftHandRing2
										{
											OFFSET 5.62556 0.00000 0.00000
											CHANNELS 3 Zrotation Xrotation Yrotation
											JOINT LeftHandRing3
											{
												OFFSET 3.56744 0.00000 0.00000
												CHANNELS 3 Zrotation Xrotation Yrotation
												End site
												{
													OFFSET 0.00000 0.00000 0.00000
												}
											}
										}
									}
									JOINT LeftHandPinky1
									{
										OFFSET 11.11390 0.00000 -6.03719
										CHANNELS 3 Zrotation Xrotation Yrotation
										JOINT LeftHandPinky2
										{
											OFFSET 4.52789 0.00000 0.00000
											CHANNELS 3 Zrotation Xrotation Yrotation
											JOINT LeftHandPinky3
											{
												OFFSET 2.46976 0.00000 0.00000
												CHANNELS 3 Zrotation Xrotation Yrotation
												End site
												{
													OFFSET 0.00000 0.00000 0.00000
												}
											}
										}
									}
								}
							}
						}
					}
					JOINT pCube4
					{
						OFFSET 0.00000 10.91090 1.10792
						CHANNELS 3 Zrotation Xrotation Yrotation
						End site
						{
							OFFSET 0.00000 0.00000 0.00000
						}
					}
				}
			}
		}
	}
	JOINT RightUpLeg
	{
		OFFSET -9.98441 0.00000 0.00000
		CHANNELS 3 Zrotation Xrotation Yrotation
		JOINT RightLeg
		{
			OFFSET 0.00000 -42.11790 0.00000
			CHANNELS 3 Zrotation Xrotation Yrotation
			JOINT RightFoot
			{
				OFFSET 0.00000 -45.00020 -0.00001
				CHANNELS 3 Zrotation Xrotation Yrotation
				JOINT RightForeFoot
				{
					OFFSET 0.00000 -3.74820 0.00000
					CHANNELS 3 Zrotation Xrotation Yrotation
					JOINT RightToeBase
					{
						OFFSET 0.00000 0.06325 14.43120
						CHANNELS 3 Zrotation Xrotation Yrotation
						End site
						{
							OFFSET 0.00000 0.00000 0.00000
						}
					}
				}
			}
		}
	}
	JOINT LeftUpLeg
	{
		OFFSET 9.98441 0.00000 0.00000
		CHANNELS 3 Zrotation Xrotation Yrotation
		JOINT LeftLeg
		{
			OFFSET 0.00000 -42.11800 0.00000
			CHANNELS 3 Zrotation Xrotation Yrotation
			JOINT LeftFoot
			{
				OFFSET 0.00000 -45.00070 0.00000
				CHANNELS 3 Zrotation Xrotation Yrotation
				JOINT LeftForeFoot
				{
					OFFSET 0.00000 -3.74824 0.00000
					CHANNELS 3 Zrotation Xrotation Yrotation
					JOINT LeftToeBase
					{
						OFFSET 0.00000 0.06325 14.43110
						CHANNELS 3 Zrotation Xrotation Yrotation
						End site
						{
							OFFSET 0.00000 0.00000 0.00000
						}
					}
				}
			}
		}
	}
}
MOTION
Frames: 4
Frame Time: 0.050000
-0.038647357411414784 0.03335005113512559 -0.015798686159951236 0.00799230941163742 -0.03227348060535742 -0.04643214087049108 -4.619819657502881 8.020702187777601 -0.5776502201132869 -0.7729360023663419 2.9136838374668934 0.3786627428913023 -1.0345535368705692 0.20755312887569272 -1.2909241063430834 -0.6751620991020684 0.2558265030705543 -1.0569475371406138 -0.09996138502980007 7.339144101960122 0.09625283273718296 -0.12001555866591312 -1.3775124009824486 -3.1760579038217194 -0.12110653920798688 -15.416693340852644 -0.14156591550991832 4.141006649622612 -0.13683172677971894 -9.80977204686846 58.696966998582056 -12.851894410779622 25.807718346087764 29.344356665682568 9.282640033892216 101.44961026548732 24.869974850178227 -0.04769312443770933 -10.744381291976858 4.496665267492605 -0.0776330332018389 -1.5723625246504331 0.04410264621710871 -0.003729883070340654 -56.233672500810705 -0.013806004208695323 -0.012712292172920768 -56.269453877677996 -38.72615803903055 0.02026195786888817 0.020742447516792228 -0.028490024123807606 -0.0349686501488279 -0.00722502241974992 -0.01209119765623889 -0.0010285042705806275 0.025640008740018896 -36.74360872420585 -0.00981167186504633 -0.009471253254234195 0.016988042163900516 0.0187189194128712 -0.0436030909419933 0.015720333283038446 0.01718018300361817 -0.033148018979221636 -19.76403080741323 0.01038389670672981 -0.04000668236845527 0.03267771644696237 0.03896287488201701 0.03250658392603105 -0.004818232108444817 -0.02646250483851295 0.002867381926682974 24.044467589894335 0.03687157759362693 -0.015918248700310077 28.88471746655069 0.015381753026118836 0.04809738108878587 28.859164813284547 0.0011926814968102818 0.0208733851484564 -3.4796429556068857 -0.10678813556593181 8.527174703670013 -60.65667262610699 18.77806884679178 -20.575560504915263 -44.73941050603971 9.685982004633662 -100.27471654184116 -12.646385719758804 2.857581040264744 -1.773203598806545 -0.4739143916160081 0.07829161610105866 -8.141456078344435 0.03583144524692355 0.020389600225581856 44.534454600058055 0.007412894045127872 -0.04588786935907818 44.606752248705924 12.421117580411961 -0.04172070023824706 0.02860582113682822 0.012849044219875396 0.007018614096951969 0.021660807617835037 -0.003808170154409389 -0.03998328930821992 0.016904925832771756 11.130481214940522 0.03835974435936955 -0.03654344396985965 -0.04407358362217188 0.03642975848230873 -0.034222644218437605 -0.03951685370625221 -0.02313605964073368 0.03820803981387837 4.796776172984429 0.017256361030609648 -0.008429266633321395 -0.031830874370041826 0.04428394778667327 0.02919786140157446 -0.045144100789020335 0.010721151065279237 0.025945907783530113 -5.596243036182724 0.015672994488127954 0.04588702427395244 -6.734854506140568 -0.03374487872432642 -0.03615695440208385 -6.704161698652998 -0.01113988211037126 0.011595893338876435 0.04095022505990894 -0.01360801382411353 0.0014437569938235417 8.05967158824965 3.5404218281634177 -19.208634474554774 -0.005569860430931583 10.43112363063174 -0.008949521146507707 -5.61425247751217 -15.638160222017687 3.1941050145579677 0.009128541223839678 -0.02416316658530168 -0.0037873960353001918 0.016684921149832808 4.6801621076111815 -0.015761552824291078 12.410763396609816 -8.214424904043964 6.855857063732919 -0.03598664467191081 46.425931387236105 0.004888348357675887 -4.358508778379005 -14.741306674282535 -3.8554736581802325 -0.0007297607750929595 0.0331232980115576 0.010960799444819416 -0.010255127785551424 -10.767125509295502 0.02142648327227379 
-0.0034720627876667215 -0.031979795505610836 -0.020612690298855055 -0.022323217871781275 -0.040681467593891886 -0.03185237817850981 -4.472944592989567 7.913595242685318 -0.5168050778916874 -0.6777834639556148 2.9831475255163835 0.3792777197352108 -0.9723077507909295 0.18674681928150752 -1.5143034050908488 -0.5346561016929587 0.29738509699236526 -1.0482468123218769 -0.08424941031728113 7.608273620376966 -0.13221542977685258 -0.05449450538350854 -1.271975100609315 -3.467196239913543 0.01564018961156647 -15.254483313027382 -0.23499164936463257 3.8287846621842268 -0.06353265709352858 -9.827890685078943 56.43812032165629 -13.766966124864128 28.06791589607965 29.760879617977924 9.773502681693145 100.65827414877934 25.148328288961018 -0.01701023819777958 -11.032842969103967 4.548445917464965 -0.15134026364384282 -1.5632370068304045 -0.04731437051346926 -0.032060380792162446 -56.20294820213844 -0.008500982480510549 0.02887850854701121 -56.27193186562045 -38.78699381109776 0.04766645017457052 -0.004824700174763734 -0.00875028647934476 -0.010308686940221828 0.012139787037608573 0.007080644957151493 -0.03708645046256609 -0.009859601987945653 -36.68400614948906 0.012657466959581013 0.004440802661869732 -0.0478084330477137 -0.0005263716156396682 -0.028751682891440814 0.01581401385422426 -0.011267059918385638 0.03625138171825538 -19.737837782717076 -0.04327086226601781 0.010736779253588248 -0.004924922367787277 0.036696748874579 0.03861461419413233 0.0228087937645964 0.046848791141551896 0.01796290887094766 24.03528393759816 0.04969022316958936 0.025877963957037346 28.835092737314238 0.02724363312469576 -0.008781128704224631 28.913522560207852 0.023921194018689956 0.04553060031239094 -3.2787980873823255 -0.11388291491999245 8.284475114809583 -58.62360046489187 19.935400165909417 -22.987029922414834 -41.881295923313075 9.2735484146792 -100.06066027367558 -13.205093309682496 2.5748324313785784 -1.7923733180584087 -0.4945228505773626 0.088881249298708 -8.088763459791974 -0.03638605461331433 -0.023742033290067462 44.52611157918358 -0.026463103087634922 0.016366013392508216 44.55285443465846 12.476413188766179 0.007650883710749032 0.027404228583482664 0.030522584806462354 0.01965059239262948 -0.039272017236870474 -0.021563449935383727 0.005112258358785484 0.031158991985105126 11.125658071815003 -0.04609145692551631 -0.009405994785049328 -0.02040382769824002 -0.004133073965499177 -0.00706006609186364 -0.04775660163897279 0.030136623148447433 0.009676878119994138 4.764233908284181 -0.023387697276846482 -0.045617942094805276 0.018580911644318347 -0.029563615534772394 -0.018300500230928954 -0.03546951042331684 0.024815749808344337 0.030833807420779867 -5.642539563955491 -0.022474519427374044 -0.0349346074208422 -6.706809450195782 -0.006829896596213526 -0.001077865497688742 -6.701095652045374 -0.00789739092202315 -0.016783026762285946 -0.01909731744011272 -0.008383099960312475 0.03819929032170293 8.022067420349252 3.4444762320776703 -19.24921470758314 0.02125979531375203 10.436475104136175 0.012593834989183527 -5.657228853899165 -15.671443918591168 3.173030786337041 0.03498743527017752 -0.020124232461438386 0.005658471267320301 -0.02551445851296879 4.652848957860223 0.000440429009801502 12.45818688423504 -8.261201244616975 6.874829092495222 -0.013255166190232115 46.376538130153286 0.023586383524076354 -4.299134206471263 -14.7877286570401 -3.8470619389307776 0.03807932989238074 -0.019820508345982004 0.0019110309666650655 -0.03123853434265136 -10.73470149013009 0.0357598885310927 
-0.016994659094626195 0.008109838193990138 0.0369137981058588 -0.03777507140485169 0.00499103663711006 0.01013753057542929 -4.329250654315989 7.817481180633017 -0.5746222601491249 -0.7341384698285226 2.9119766313279953 0.3632902421538818 -0.9875036599753318 0.19068502739732432 -1.6312822554364785 -0.4572159438989013 0.2869655887497045 -1.1222863574031112 0.06867838391354394 7.687424736727941 -0.32139195804015896 -0.05633747054401576 -1.1873011756965943 -3.6557397735573085 0.04940648758014632 -15.142572780328802 -0.26378596757644174 3.5365056377910746 -0.03228910424153722 -9.672243724594196 54.366046341675755 -14.55278298967431 30.448278850324563 30.290153359164112 10.204760342357776 99.37786561779076 25.567498276008575 0.012055386866486356 -11.508673757166749 4.541946630173622 -0.14522768164490532 -1.6385191317949959 0.02746812771794451 -0.007269457732390524 -56.216287349319224 -0.009869885334501833 0.02594634278315705 -56.209611541280665 -38.76260367479833 -0.011413840898502035 -0.023005195591322025 -0.012949235192318113 0.0014798479652444769 0.02069836166690432 -0.00022558291480704757 -0.008119428750902205 -0.031881325256348486 -36.738761469999204 0.03260995964122086 -0.03484261533402093 0.024563109572388744 -0.0010358730674473364 -0.04895726258466481 -0.003925972619725741 -0.02799628475890404 -0.03751797957153323 -19.80700833581992 0.002614046175396681 0.005125157980183241 -0.031092504774054047 -0.012851502746813721 0.03833796832713529 0.03265584997800557 -0.0430786071725352 -0.0007976307079811818 24.01340938875078 0.0345920886066352 -0.028994171080253407 28.89670388507669 0.003299943996394619 0.014326448074012461 28.885968770488308 -0.03756511346063182 -0.01763692987573532 -3.017383805902538 0.012803126105537167 7.983413437440354 -56.43384056525302 21.023829295572753 -25.62830750328606 -37.369146009943556 8.187993487027473 -99.08620228139121 -14.05752083024921 2.092946845753604 -1.7821683092427103 -0.4637963593731 0.05358908517037244 -8.140657007896182 -0.03497640254506133 -0.019251048474629644 44.556401578495425 0.0426262838384913 0.04505707572185888 44.58364933921849 12.431721997622407 -0.02341127457863884 -0.004143915276472315 0.02696863202363196 0.017962185350753612 0.0029981499251508477 -0.041146783937255745 0.04995982400034463 0.002579080248775971 11.13208605773053 -0.04477296296107687 -0.03074270927242462 -0.02670551220932407 -0.03455387179983125 -0.029358049143552306 -0.04904933467956009 0.016827093769378153 -0.04573123154210251 4.767025300822775 -0.03702433412273562 0.031866359999952264 -0.039439886008564934 0.030887014537658516 -0.009955494204537597 0.023946951866264412 0.02178649993582442 0.025896586424379257 -5.576625591520493 -0.031737966598818924 0.04609572451993576 -6.716075737804701 0.016795499226386918 0.0498283694907139 -6.747027648967852 0.044305931844499144 -0.01872753258686668 -0.010613655097253587 -0.023758348667994676 -0.03251727826391846 8.038759310395271 3.5419634132553526 -19.249998099524515 0.017155038490267994 10.422237338315893 0.0007191908785829561 -5.577675418586115 -15.620590823960407 3.1812303405927964 0.011017278004495064 -0.005258785712115791 -0.04374058621124606 0.04642289530539402 4.726846219715224 0.012890247435034608 12.440689161649738 -8.256893745996148 6.8684481905013675 -0.04484292333980159 46.42566583597004 -0.002846092643137348 -4.315744414842682 -14.757765744825372 -3.8671173778933428 -0.00804137374831677 0.014126704418846413 0.002406813977978256 -0.008365757854325225 -10.724058955111852 0.017984830979229736 
0.023762363544137938 -0.04547615239339768 0.02276460546946414 0.002579221870814023 -0.03304406071209921 -0.008812670613338337 -4.257358850482004 7.704133080410351 -0.5236377769630564 -0.6683400367582745 2.9735035988629024 0.3557659900710168 -1.0234286627390297 0.19992053672818555 -1.8701363090896443 -0.3953197123428262 0.20247196042273824 -1.1036536546466549 0.05547384265317154 7.819768708279796 -0.4201712933069209 -0.11604480698617052 -1.1071930182576684 -3.795238421189157 0.04337263308939049 -15.075250956627682 -0.23664792737846715 3.268903952277594 0.11780635807096458 -9.640702051430013 53.22574695169745 -15.063882139181054 32.3960039666105 30.383765117534917 10.55873496023674 97.32041041295903 25.92278218112267 0.01569627893877703 -11.719305557448076 4.529343773878126 -0.11307236602962173 -1.5898739761825778 -0.008274207945703682 -0.004530084113980034 -56.191795316782255 0.04230773898139865 -0.007600844797554147 -56.249755523033016 -38.77569515103195 -0.025703834547890242 -0.022040161746283846 0.0456565096696804 -0.014730315215676784 -0.02375499932723444 -0.0047795918211301375 0.04919964387594494 -0.04275191740617855 -36.68729462892605 0.00588077656779011 -0.004881083812375284 -0.03711195353771093 0.014499772224460934 0.008214940273337983 0.048016703504437507 -0.0023344879405292262 0.0020600235830613755 -19.77785372891961 0.0006386679776806889 -0.0220110625603212 -0.03386085512880834 0.022311061745675317 -0.04795519318152392 0.0443371996876176 0.023328653009920916 -0.015324358973933866 24.01891865567107 0.005923574331439478 0.004553325198874331 28.879826325749686 -0.007493167426616956 -0.019340128007112777 28.913842643742026 0.030781532584792787 0.040784805371701455 -2.628857183410619 0.035947671944837306 7.845595858660294 -54.61782717466731 21.71017112202833 -28.130269285025733 -33.11656422439935 7.124866902799144 -97.8243828754582 -14.846263356286613 1.6571325920564117 -1.6799514201798849 -0.45457548677439524 0.05038822775364247 -8.109336475053125 -0.013468024717722646 -0.04712579708369208 44.55965043678666 0.0280731804196656 0.022056538242871612 44.581478976787054 12.461550025015649 -0.022745476320007268 0.022728069597527174 0.0136204260396407 0.0321853236781723 0.0026104837480507353 0.009524536068483223 -0.008766872366964542 -0.016435164422555118 11.089317712966949 -0.026788170300136277 0.029676556827265308 -0.0008979043182847066 0.003688567267341575 0.002809282689209773 -0.0376815676396825 0.043803807039845176 -0.011933302667912773 4.730844474535472 -0.026218482009618554 0.008090538179208713 -0.045616384799742456 -0.025510819701815513 0.01876664984025531 -0.018982479503918785 0.0031151378573016832 -0.041903805105716466 -5.645693461199416 0.04764241116562508 -0.025650679310501398 -6.7061078795957805 -0.000516349122855865 -0.04712635534744989 -6.711303017779812 -0.04341092386937218 0.009731998976467933 -0.04487106320608916 -0.04314901373441726 0.011975535690239587 8.018689572692631 3.52009749002778 -19.183248449262656 0.02161491196672659 10.408145781013213 0.04692134299022718 -5.658675791694301 -15.6267553528229 3.2316154840993683 -0.049296710346450445 -0.022723032481890906 -0.04422147294395787 -0.009358370043769264 4.744416914674456 0.009520632631292141 12.469311180474923 -8.274121753125105 6.9049328802298735 -0.015552683110384106 46.40415838066987 0.034625374344395186 -4.292656445237981 -14.7367594491675 -3.860670430732546 0.04876037854471357 -0.025888881443171904 -0.01680371265696341 0.025029221644336495 -10.777162232408207 0.018635940207924008 
